Land_normalized_precision_landing06_filtered_grf
version=1
nRows=15
nColumns=37
inDegrees=yes
endheader
time		1_ground_force_vx		1_ground_force_vy		1_ground_force_vz		1_ground_force_px		1_ground_force_py		1_ground_force_pz		1_ground_torque_x		1_ground_torque_y		1_ground_torque_z		2_ground_force_vx		2_ground_force_vy		2_ground_force_vz		2_ground_force_px		2_ground_force_py		2_ground_force_pz		2_ground_torque_x		2_ground_torque_y		2_ground_torque_z		3_ground_force_vx		3_ground_force_vy		3_ground_force_vz		3_ground_force_px		3_ground_force_py		3_ground_force_pz		3_ground_torque_x		3_ground_torque_y		3_ground_torque_z		4_ground_force_vx		4_ground_force_vy		4_ground_force_vz		4_ground_force_px		4_ground_force_py		4_ground_force_pz		4_ground_torque_x		4_ground_torque_y		4_ground_torque_z		
1.047000		6.975298		-47.866685		-24.166096		0.127452		0.000000		0.296260		-0.006014		0.041271		0.020836		-2.132286		12.961875		6.433181		-0.181013		0.000000		0.266405		-0.017744		0.107862		0.053534		11.003814		-1.496680		-4.425356		0.381289		1.275855		1.884268		-0.022232		0.003024		0.008941		-6.293824		-0.632437		-0.375308		-0.351286		1.268358		1.872236		0.009414		0.000946		0.000561		
1.049904		9.778412		-81.211662		-46.800796		0.121132		0.000000		0.280745		0.003183		-0.026481		-0.015278		-4.342196		-13.719745		0.050621		-0.125687		0.000000		0.283451		-0.019624		-0.069660		-0.002260		10.819097		-1.544600		-4.473841		0.381288		1.275859		1.884317		-0.019752		0.002819		0.008168		-6.503147		-0.499087		-0.406750		-0.351294		1.268366		1.872263		0.015327		0.001176		0.000959		
1.052808		9.489696		-94.291030		-60.231192		0.116074		0.000000		0.267690		0.009226		-0.091752		-0.058636		-5.818455		-49.813499		-10.136868		-0.150420		0.000000		0.277970		-0.085177		-0.729497		-0.148483		10.600431		-1.569497		-4.552840		0.381289		1.275862		1.884377		-0.016995		0.002516		0.007299		-6.643947		-0.372004		-0.416827		-0.351315		1.268366		1.872291		0.020595		0.001152		0.001292		
1.055712		4.051924		-65.443882		-51.281129		0.106028		0.000000		0.238925		0.005074		-0.081685		-0.063942		-5.370245		-83.612815		-21.526170		-0.157166		0.000000		0.276004		-0.079963		-1.244844		-0.320476		10.392162		-1.561626		-4.637253		0.381291		1.275864		1.884441		-0.014605		0.002195		0.006517		-6.697983		-0.281302		-0.397219		-0.351347		1.268361		1.872322		0.024115		0.001012		0.001430		
1.058616		-7.791019		23.995774		-7.755324		0.173901		0.000000		0.470308		0.098705		-0.276281		0.126465		-1.903746		-96.629270		-29.182168		-0.163222		0.000000		0.275017		-0.026600		-1.347376		-0.406856		10.243775		-1.527223		-4.700117		0.381289		1.275866		1.884510		-0.013201		0.001968		0.006057		-6.665424		-0.244901		-0.350688		-0.351382		1.268351		1.872358		0.025257		0.000928		0.001329		
1.061520		-25.692651		181.796907		76.474002		0.127507		0.000000		0.305557		-0.045438		0.321592		0.135322		5.083168		-67.216178		-26.492126		-0.176895		0.000000		0.275676		0.044683		-0.594335		-0.233996		10.191273		-1.486408		-4.723496		0.381282		1.275865		1.884578		-0.013135		0.001915		0.006087		-6.560068		-0.262979		-0.292753		-0.351416		1.268339		1.872401		0.024100		0.000966		0.001075		
1.064424		-47.278959		398.502098		196.753386		0.121448		0.000000		0.290009		-0.138765		1.169806		0.577632		15.024038		23.094871		-6.717635		-0.031388		0.000000		0.227686		-0.045543		0.064980		0.064186		10.240257		-1.464920		-4.705813		0.381268		1.275863		1.884645		-0.014297		0.002045		0.006570		-6.401834		-0.320353		-0.247160		-0.351444		1.268332		1.872451		0.021393		0.001070		0.000826		
1.067328		-68.488029		645.393677		335.006671		0.118176		0.000000		0.282929		-0.275204		2.593876		1.346486		26.005279		180.436928		34.321193		-0.137726		0.000000		0.269346		0.573665		3.979912		0.756963		10.360543		-1.481850		-4.665160		0.381246		1.275860		1.884707		-0.016147		0.002310		0.007270		-6.212833		-0.393105		-0.235886		-0.351466		1.268332		1.872505		0.018235		0.001154		0.000692		
1.070232		-85.114842		882.642276		463.342168		0.115667		0.000000		0.278612		-0.459595		4.766968		2.502393		35.100837		392.531440		95.919123		-0.145927		0.000000		0.267791		0.770951		8.621979		2.106913		10.502362		-1.538662		-4.634255		0.381219		1.275856		1.884762		-0.017990		0.002635		0.007938		-6.015705		-0.457469		-0.269765		-0.351480		1.268340		1.872563		0.015577		0.001184		0.000699		
1.073136		-95.001105		1073.631252		552.626787		0.113598		0.000000		0.275992		-0.690943		7.809594		4.019535		39.286887		627.835770		171.217318		-0.148398		0.000000		0.265354		0.896817		14.333596		3.909041		10.618955		-1.616662		-4.648723		0.381192		1.275850		1.884812		-0.019240		0.002929		0.008423		-5.833630		-0.495532		-0.345242		-0.351494		1.268359		1.872619		0.013924		0.001182		0.000824		
1.076040		-99.856435		1198.993936		583.621474		0.112168		0.000000		0.274948		-0.972170		11.673248		5.681775		36.832351		843.191927		248.114623		-0.148608		0.000000		0.261830		0.907054		20.766668		6.110816		10.681995		-1.684442		-4.730907		0.381169		1.275842		1.884859		-0.019509		0.003076		0.008640		-5.689545		-0.497261		-0.447221		-0.351510		1.268383		1.872673		0.013358		0.001168		0.001050		
1.078944		-104.999050		1260.694213		554.430054		0.111825		0.000000		0.275516		-1.325512		15.914652		6.998377		28.548844		999.222479		312.702241		-0.146993		0.000000		0.256835		0.787195		27.557083		8.624046		10.683065		-1.710282		-4.876737		0.381153		1.275833		1.884903		-0.018629		0.002982		0.008504		-5.605868		-0.460370		-0.554673		-0.351533		1.268410		1.872722		0.013752		0.001129		0.001361		
1.081848		-116.481319		1277.286884		481.552536		0.113013		0.000000		0.277667		-1.781158		19.529079		7.361483		18.014297		1077.418965		354.302054		-0.143402		0.000000		0.250083		0.575482		34.439916		11.325824		10.628373		-1.674027		-5.052886		0.381150		1.275822		1.884948		-0.016730		0.002635		0.007953		-5.602076		-0.391019		-0.646733		-0.351562		1.268436		1.872766		0.014931		0.001042		0.001724		
1.084753		-137.366618		1274.427561		393.011628		0.115835		0.000000		0.281241		-2.280736		21.159173		6.524949		10.038913		1086.645267		369.344475		-0.137715		0.000000		0.241830		0.380664		41.231848		14.014878		10.535271		-1.573976		-5.210176		0.381156		1.275807		1.884993		-0.014245		0.002129		0.007045		-5.687714		-0.304320		-0.709091		-0.351597		1.268457		1.872805		0.016645		0.000890		0.002075		
1.087657		-165.844851		1275.676985		317.035990		0.119565		0.000000		0.285663		-2.614624		20.114407		4.999684		8.491769		1056.365788		361.823232		-0.130321		0.000000		0.233453		0.383912		47.740614		16.351798		10.433731		-1.428394		-5.305590		0.381167		1.275791		1.885039		-0.011802		0.001616		0.006001		-5.853213		-0.223049		-0.738051		-0.351634		1.268469		1.872840		0.018502		0.000705		0.002333		
